<svg width="24" height="24" viewBox="0 0 24 24" fill="none" xmlns="http://www.w3.org/2000/svg">
<path d="M2.6666 20.5714H3.1666C3.21081 20.5714 3.2532 20.5526 3.28446 20.5191C3.31571 20.4856 3.33327 20.4402 3.33327 20.3929V12.7817C3.33289 12.7533 3.33885 12.7252 3.35064 12.6997C3.36243 12.6743 3.37972 12.6522 3.40107 12.6354C3.42243 12.6185 3.44722 12.6074 3.4734 12.6028C3.49959 12.5983 3.5264 12.6006 3.55161 12.6094C3.93396 12.7381 4.33101 12.8099 4.73162 12.8228C4.78079 12.8228 4.82746 12.825 4.87329 12.825C5.64383 12.8269 6.40198 12.6173 7.0754 12.2161C7.12638 12.1857 7.18374 12.1698 7.24207 12.1698C7.3004 12.1698 7.35776 12.1857 7.40874 12.2161C8.08201 12.6173 8.84002 12.8269 9.61043 12.825C10.3765 12.8262 11.1298 12.614 11.7963 12.2094C11.8477 12.1782 11.9058 12.1618 11.9648 12.1618C12.0239 12.1618 12.082 12.1782 12.1334 12.2094C12.8099 12.6155 13.5729 12.8277 14.3484 12.8254C15.1196 12.826 15.8776 12.6105 16.5472 12.2004C16.599 12.1689 16.6576 12.1523 16.7172 12.1523C16.7768 12.1523 16.8354 12.1689 16.8872 12.2004C17.5567 12.6105 18.3147 12.826 19.086 12.8254C19.1314 12.8254 19.1772 12.8254 19.2264 12.8232H19.2289C19.6436 12.8099 20.0543 12.7334 20.4489 12.596C20.4739 12.5873 20.5004 12.5851 20.5263 12.5896C20.5523 12.594 20.5769 12.6049 20.5981 12.6214C20.6194 12.638 20.6366 12.6597 20.6486 12.6847C20.6605 12.7098 20.6668 12.7375 20.6668 12.7656V20.3929C20.6668 20.4402 20.6844 20.4856 20.7156 20.5191C20.7469 20.5526 20.7893 20.5714 20.8335 20.5714H21.3126C21.6727 20.5714 21.9835 20.8679 21.9993 21.2536C22.0034 21.35 21.9892 21.4462 21.9575 21.5366C21.9259 21.6269 21.8775 21.7095 21.8153 21.7792C21.7531 21.849 21.6783 21.9045 21.5955 21.9425C21.5127 21.9804 21.4235 22 21.3335 22H2.68743C2.32743 22 2.01659 21.7036 2.00076 21.3179C1.9967 21.2215 2.01092 21.1252 2.04255 21.0348C2.07419 20.9445 2.12257 20.862 2.1848 20.7922C2.24703 20.7224 2.3218 20.6669 2.40461 20.629C2.48741 20.591 2.57654 20.5715 2.6666 20.5714ZM13.3334 17.5357C13.3334 17.5831 13.3509 17.6285 13.3822 17.662C13.4135 17.6955 13.4559 17.7143 13.5001 17.7143H17.1668C17.211 17.7143 17.2534 17.6955 17.2846 17.662C17.3159 17.6285 17.3334 17.5831 17.3334 17.5357V14.6786C17.3334 14.5365 17.2808 14.4002 17.187 14.2998C17.0932 14.1993 16.966 14.1429 16.8334 14.1429H13.8334C13.7008 14.1429 13.5736 14.1993 13.4798 14.2998C13.3861 14.4002 13.3334 14.5365 13.3334 14.6786V17.5357ZM6.83331 20.5714H9.83335C9.87755 20.5714 9.91994 20.5526 9.9512 20.5191C9.98246 20.4856 10 20.4402 10 20.3929V14.6786C10 14.5365 9.94734 14.4002 9.85357 14.2998C9.7598 14.1993 9.63262 14.1429 9.50001 14.1429H7.16665C7.03404 14.1429 6.90686 14.1993 6.81309 14.2998C6.71932 14.4002 6.66664 14.5365 6.66664 14.6786V20.3929C6.66664 20.4402 6.6842 20.4856 6.71546 20.5191C6.74672 20.5526 6.78911 20.5714 6.83331 20.5714ZM2.14284 8.17321L3.9312 3.77634C4.39953 2.69732 5.46913 2 6.65623 2H17.3459C18.533 2 19.6026 2.69732 20.071 3.77634L21.8593 8.17321C22.2343 9.03973 21.7389 9.92946 21.7385 9.92991L21.7268 9.95C21.7064 9.98482 21.6702 10.0393 21.6481 10.0741C21.646 10.0768 21.6443 10.0799 21.6422 10.083L21.4339 10.3531C21.4261 10.3633 21.4178 10.373 21.4089 10.3821L21.2006 10.5978L21.1831 10.6138C21.0607 10.7262 20.9298 10.8274 20.7918 10.9165V10.9187C20.3383 11.2131 19.8217 11.3771 19.2918 11.3951H19.1889C18.3871 11.3967 17.6145 11.0727 17.0268 10.4884L17.013 10.4746C16.9516 10.4126 16.8705 10.3781 16.7861 10.3781C16.7018 10.3781 16.6206 10.4126 16.5593 10.4746L16.5455 10.4884C15.9515 11.0717 15.175 11.3953 14.3692 11.3953C13.5635 11.3953 12.787 11.0717 12.193 10.4884C12.1313 10.4273 12.0505 10.3933 11.9665 10.3933C11.8825 10.3933 11.8017 10.4273 11.74 10.4884C11.1478 11.0699 10.3741 11.3933 9.57083 11.3952C8.76752 11.3971 7.99254 11.0773 7.3979 10.4987C7.3372 10.4384 7.25751 10.4049 7.17478 10.4049C7.09204 10.4049 7.01235 10.4384 6.95165 10.4987C6.35638 11.0809 5.57801 11.401 4.77204 11.3951H4.66829C4.15168 11.3744 3.64902 11.2098 3.20994 10.9174C3.17035 10.892 3.13244 10.8652 3.0941 10.8384C2.79796 10.6245 2.54023 10.3552 2.33326 10.0433L2.26076 9.92589C2.25354 9.91399 2.24687 9.90149 2.24076 9.88839C2.17159 9.7375 1.80075 8.96161 2.14284 8.17321Z" fill="#1A1F16"/>
</svg>
